<svg width="27" height="31" viewBox="0 0 27 31" fill="none" xmlns="http://www.w3.org/2000/svg">
<path d="M24.4688 8.71875V22.2812C24.4688 22.7951 24.291 23.2879 23.9745 23.6513C23.658 24.0146 23.2288 24.2188 22.7812 24.2188H4.21875C3.7712 24.2188 3.34197 24.0146 3.02551 23.6513C2.70904 23.2879 2.53125 22.7951 2.53125 22.2812V8.71875M24.4688 8.71875C24.4688 8.20489 24.291 7.71208 23.9745 7.34873C23.658 6.98538 23.2288 6.78125 22.7812 6.78125H4.21875C3.7712 6.78125 3.34197 6.98538 3.02551 7.34873C2.70904 7.71208 2.53125 8.20489 2.53125 8.71875M24.4688 8.71875L14.4602 16.6741C14.178 16.8983 13.8431 17.0183 13.5 17.0183C13.1569 17.0183 12.822 16.8983 12.5398 16.6741L2.53125 8.71875" stroke="white" stroke-width="2" stroke-linecap="round" stroke-linejoin="round"/>
</svg>
