<svg width="38" height="33" viewBox="0 0 38 33" fill="none" xmlns="http://www.w3.org/2000/svg">
<path d="M0 1.28125C0 0.991169 0.131696 0.71297 0.366117 0.507852C0.600537 0.302734 0.918479 0.1875 1.25 0.1875H5C5.27883 0.187567 5.54963 0.269205 5.76933 0.419429C5.98903 0.569654 6.14502 0.77984 6.2125 1.01656L7.225 4.5625H36.25C36.4335 4.56265 36.6148 4.59816 36.7809 4.66652C36.947 4.73487 37.0938 4.83439 37.211 4.95801C37.3282 5.08162 37.4128 5.2263 37.4588 5.38176C37.5049 5.53722 37.5113 5.69964 37.4775 5.8575L33.7275 23.3575C33.6739 23.6081 33.5219 23.8345 33.2977 23.9975C33.0736 24.1604 32.7914 24.2498 32.5 24.25H10C9.70858 24.2498 9.42641 24.1604 9.20228 23.9975C8.97814 23.8345 8.82612 23.6081 8.7725 23.3575L5.025 5.89031L4.025 2.375H1.25C0.918479 2.375 0.600537 2.25977 0.366117 2.05465C0.131696 1.84953 0 1.57133 0 1.28125ZM7.755 6.75L11.0375 22.0625H31.4625L34.745 6.75H7.755ZM12.5 24.25C11.1739 24.25 9.90215 24.7109 8.96447 25.5314C8.02678 26.3519 7.5 27.4647 7.5 28.625C7.5 29.7853 8.02678 30.8981 8.96447 31.7186C9.90215 32.5391 11.1739 33 12.5 33C13.8261 33 15.0979 32.5391 16.0355 31.7186C16.9732 30.8981 17.5 29.7853 17.5 28.625C17.5 27.4647 16.9732 26.3519 16.0355 25.5314C15.0979 24.7109 13.8261 24.25 12.5 24.25ZM30 24.25C28.6739 24.25 27.4021 24.7109 26.4645 25.5314C25.5268 26.3519 25 27.4647 25 28.625C25 29.7853 25.5268 30.8981 26.4645 31.7186C27.4021 32.5391 28.6739 33 30 33C31.3261 33 32.5979 32.5391 33.5355 31.7186C34.4732 30.8981 35 29.7853 35 28.625C35 27.4647 34.4732 26.3519 33.5355 25.5314C32.5979 24.7109 31.3261 24.25 30 24.25ZM12.5 26.4375C13.163 26.4375 13.7989 26.668 14.2678 27.0782C14.7366 27.4884 15 28.0448 15 28.625C15 29.2052 14.7366 29.7616 14.2678 30.1718C13.7989 30.582 13.163 30.8125 12.5 30.8125C11.837 30.8125 11.2011 30.582 10.7322 30.1718C10.2634 29.7616 10 29.2052 10 28.625C10 28.0448 10.2634 27.4884 10.7322 27.0782C11.2011 26.668 11.837 26.4375 12.5 26.4375ZM30 26.4375C30.663 26.4375 31.2989 26.668 31.7678 27.0782C32.2366 27.4884 32.5 28.0448 32.5 28.625C32.5 29.2052 32.2366 29.7616 31.7678 30.1718C31.2989 30.582 30.663 30.8125 30 30.8125C29.337 30.8125 28.7011 30.582 28.2322 30.1718C27.7634 29.7616 27.5 29.2052 27.5 28.625C27.5 28.0448 27.7634 27.4884 28.2322 27.0782C28.7011 26.668 29.337 26.4375 30 26.4375Z" fill="#FFC300"/>
</svg>
