<svg width="228" height="35" viewBox="0 0 228 35" fill="none" xmlns="http://www.w3.org/2000/svg">
<g opacity="0.5">
<g clip-path="url(#clip0_12_8)">
<path d="M197.619 30.3252H198.119V29.8252V13.1182V12.6182H197.619H191.206H190.706V13.1182V29.8252V30.3252H191.206H197.619ZM221.621 30.3252H222.121V29.8252V20.6582C222.121 18.3886 221.825 16.2522 220.605 14.6858C219.364 13.0906 217.262 12.2012 213.933 12.2012C211.404 12.2012 209.474 13.0771 208.289 14.1589V13.1182V12.6182H207.789H201.645H201.145V13.1182V29.8252V30.3252H201.645H208.042H208.542V29.8252V21.5674C208.542 20.4931 208.672 19.5522 209.126 18.8839C209.55 18.2583 210.329 17.7744 211.882 17.7744C212.643 17.7744 213.172 17.9187 213.545 18.1297C213.913 18.3377 214.161 18.6288 214.334 18.9829C214.696 19.7264 214.716 20.7118 214.716 21.7041V29.8252V30.3252H215.216H221.621ZM187.99 0.5H224.811C226.417 0.5 227.51 1.50859 227.51 2.52246V32.4775C227.51 33.4853 226.416 34.5 224.811 34.5H187.99C186.389 34.5 185.3 33.4875 185.3 32.4707V2.52246C185.3 1.50712 186.387 0.5 187.99 0.5ZM190.191 7.83398C190.191 9.86518 192.182 11.3418 194.412 11.3418C196.637 11.3418 198.626 9.85705 198.626 7.83398C198.626 5.80343 196.636 4.32617 194.412 4.32617C192.182 4.32617 190.191 5.80279 190.191 7.83398Z" fill="white" stroke="white"/>
</g>
<g clip-path="url(#clip1_12_8)">
<path d="M144.805 3.15137C150.578 3.15137 151.261 3.17187 153.531 3.25391C155.641 3.3291 156.781 3.61621 157.54 3.85547C158.544 4.16992 159.27 4.55273 160.021 5.16113C160.781 5.77637 161.245 6.35742 161.633 7.1709C161.929 7.78613 162.283 8.71582 162.376 10.418C162.477 12.2637 162.502 12.8174 162.502 17.4863C162.502 22.1621 162.477 22.7158 162.376 24.5547C162.283 26.2637 161.929 27.1865 161.633 27.8018C161.245 28.6152 160.772 29.2031 160.021 29.8115C159.262 30.4268 158.544 30.8027 157.54 31.1172C156.781 31.3564 155.633 31.6436 153.531 31.7188C151.253 31.8008 150.569 31.8213 144.805 31.8213C139.032 31.8213 138.349 31.8008 136.079 31.7188C133.969 31.6436 132.829 31.3564 132.07 31.1172C131.066 30.8027 130.34 30.4199 129.589 29.8115C128.829 29.1963 128.365 28.6152 127.977 27.8018C127.681 27.1865 127.327 26.2568 127.234 24.5547C127.133 22.709 127.107 22.1553 127.107 17.4863C127.107 12.8105 127.133 12.2568 127.234 10.418C127.327 8.70898 127.681 7.78613 127.977 7.1709C128.365 6.35742 128.838 5.76953 129.589 5.16113C130.348 4.5459 131.066 4.16992 132.07 3.85547C132.829 3.61621 133.977 3.3291 136.079 3.25391C138.349 3.17187 139.032 3.15137 144.805 3.15137ZM144.805 0C138.94 0 138.205 0.0205078 135.901 0.102539C133.606 0.18457 132.028 0.485351 130.66 0.916016C129.234 1.36719 128.027 1.96191 126.829 2.93945C125.622 3.91016 124.888 4.8877 124.331 6.03613C123.799 7.15039 123.428 8.42188 123.327 10.2812C123.225 12.1543 123.2 12.749 123.2 17.5C123.2 22.251 123.225 22.8457 123.327 24.7119C123.428 26.5713 123.799 27.8496 124.331 28.957C124.888 30.1123 125.622 31.0898 126.829 32.0605C128.027 33.0312 129.234 33.6328 130.652 34.0771C132.028 34.5078 133.597 34.8086 135.893 34.8906C138.197 34.9727 138.931 34.9932 144.797 34.9932C150.662 34.9932 151.396 34.9727 153.7 34.8906C155.996 34.8086 157.574 34.5078 158.941 34.0771C160.359 33.6328 161.566 33.0312 162.764 32.0605C163.962 31.0898 164.705 30.1123 165.254 28.9639C165.785 27.8496 166.157 26.5781 166.258 24.7188C166.359 22.8525 166.385 22.2578 166.385 17.5068C166.385 12.7559 166.359 12.1611 166.258 10.2949C166.157 8.43555 165.785 7.15723 165.254 6.0498C164.722 4.8877 163.988 3.91016 162.781 2.93945C161.583 1.96875 160.376 1.36719 158.958 0.922852C157.582 0.492187 156.013 0.191406 153.717 0.109375C151.405 0.0205078 150.67 0 144.805 0Z" fill="white"/>
<path d="M144.805 8.51074C138.678 8.51074 133.707 12.5371 133.707 17.5C133.707 22.4629 138.678 26.4893 144.805 26.4893C150.932 26.4893 155.903 22.4629 155.903 17.5C155.903 12.5371 150.932 8.51074 144.805 8.51074ZM144.805 23.3311C140.83 23.3311 137.606 20.7197 137.606 17.5C137.606 14.2803 140.83 11.6689 144.805 11.6689C148.78 11.6689 152.004 14.2803 152.004 17.5C152.004 20.7197 148.78 23.3311 144.805 23.3311Z" fill="white"/>
<path d="M158.933 8.15528C158.933 9.31739 157.768 10.2539 156.342 10.2539C154.907 10.2539 153.751 9.31055 153.751 8.15528C153.751 6.99317 154.915 6.05664 156.342 6.05664C157.768 6.05664 158.933 7 158.933 8.15528Z" fill="white"/>
</g>
<g clip-path="url(#clip2_12_8)">
<path d="M75.1934 31.7189C91.495 31.7189 100.414 20.7767 100.414 11.2904C100.414 10.9828 100.405 10.6684 100.388 10.3607C102.123 9.34443 103.621 8.08558 104.81 6.64336C103.194 7.22567 101.478 7.60598 99.7218 7.77129C101.571 6.8732 102.956 5.46236 103.62 3.80029C101.88 4.63561 99.9768 5.22486 97.9925 5.54277C96.6555 4.39207 94.8878 3.63017 92.9626 3.37487C91.0374 3.11957 89.062 3.38508 87.3418 4.13035C85.6216 4.87563 84.2524 6.05916 83.4459 7.49796C82.6394 8.93676 82.4405 10.5507 82.88 12.0902C79.3566 11.947 75.9096 11.2056 72.7625 9.91411C69.6155 8.6226 66.8387 6.80981 64.612 4.59326C63.4804 6.17369 63.1341 8.04386 63.6435 9.82368C64.153 11.6035 65.48 13.1594 67.3549 14.1752C65.9473 14.139 64.5706 13.832 63.3385 13.2797V13.3685C63.3373 15.0271 64.0451 16.6348 65.3418 17.9184C66.6385 19.202 68.444 20.0823 70.4513 20.4096C69.1474 20.6985 67.779 20.7406 66.4518 20.5326C67.0183 21.959 68.1203 23.2065 69.6042 24.1011C71.0881 24.9957 72.8798 25.4927 74.7292 25.5228C71.5895 27.5206 67.7109 28.6041 63.7183 28.599C63.0102 28.5981 62.3029 28.563 61.6 28.4937C65.6561 30.6015 70.3744 31.721 75.1934 31.7189Z" fill="white"/>
</g>
<g clip-path="url(#clip3_12_8)">
<path d="M42.7099 17.5C42.7099 25.7474 35.3647 32.7355 25.4807 34.2135V23.0586H30.0148H30.429L30.5061 22.6516L31.464 17.593L31.5763 17H30.9727H25.4807V14.2188C25.4807 13.6257 25.6579 13.0893 26.0766 12.6969C26.4988 12.3014 27.2386 11.9844 28.5016 11.9844H31.2259H31.7259V11.4844V7.17773V6.74208L31.2943 6.68244L31.2259 7.17773L31.2942 6.68243L31.2941 6.68241L31.2936 6.68234L31.292 6.68212L31.2862 6.68132L31.2639 6.67832L31.1792 6.66718C31.1054 6.65764 30.9979 6.64408 30.8617 6.62784C30.5895 6.59539 30.2022 6.55219 29.7405 6.50901C28.8188 6.42281 27.5928 6.33594 26.3897 6.33594C23.8471 6.33594 21.6828 6.95949 20.1439 8.20712C18.5912 9.46603 17.7292 11.3176 17.7292 13.6445V17H12.7435H12.2435V17.5V22.5586V23.0586H12.7435H17.7292V34.2135C7.84518 32.7355 0.5 25.7474 0.5 17.5C0.5 8.20443 9.84542 0.5 21.6049 0.5C33.3645 0.5 42.7099 8.20443 42.7099 17.5Z" fill="white" stroke="white"/>
</g>
</g>
<defs>
<clipPath id="clip0_12_8">
<rect width="43.2099" height="35" fill="white" transform="translate(184.8)"/>
</clipPath>
<clipPath id="clip1_12_8">
<rect width="43.2099" height="35" fill="white" transform="translate(123.2)"/>
</clipPath>
<clipPath id="clip2_12_8">
<rect width="43.2099" height="35" fill="white" transform="translate(61.6)"/>
</clipPath>
<clipPath id="clip3_12_8">
<rect width="43.2099" height="35" fill="white"/>
</clipPath>
</defs>
</svg>
